# xmcd CD database file
#
# Track frame offsets:
#	150
#	10510
#	20772
#	32914
#	45397
#	58547
#	74716
#	86904
#	94856
#	106622
#	116009
#	129137
#	142912
#	156696
#	167138
#	178251
#	190578
#
# Disc length: 2735 seconds
#
# Revision: 0
# Processed by: cddbd v1.5.2PL0 Copyright (c) Steve Scherf et al.
# Submitted via: CDex 1.70beta2
#
DISCID=e40aad11
DTITLE=Parton, Dolly - Letter To Heaven: Songs of Faith and Inspiration
DYEAR=2010
DGENRE=Country
TTITLE0=I Believe
TTITLE1=Yes I See God
TTITLE2=The Master's Hand
TTITLE3=Heaven's Just A Prayer Away
TTITLE4=Golden Streets Of Glory
TTITLE5=How Great Thou Art
TTITLE6=I'll Keep Climbing
TTITLE7=Book Of Life
TTITLE8=Wings Of A Dove
TTITLE9=Lord Hold My Hand
TTITLE10=Would You Know Him (If You Saw Him)
TTITLE11=Comin' For To Carry Me Home
TTITLE12=Daddy Was An Old Time Preacher Man
TTITLE13=God's Coloring Book
TTITLE14=Letter To Heaven
TTITLE15=Sacred Memories
TTITLE16=The Seeker (New Edit)
EXTD=YEAR: 2010
EXTT0=
EXTT1=
EXTT2=
EXTT3=
EXTT4=
EXTT5=
EXTT6=
EXTT7=
EXTT8=
EXTT9=
EXTT10=
EXTT11=
EXTT12=
EXTT13=
EXTT14=
EXTT15=
EXTT16=
PLAYORDER=
